<?xml version="1.0" encoding="UTF-8" standalone="no"?><!DOCTYPE svg PUBLIC "-//W3C//DTD SVG 1.1//EN" "http://www.w3.org/Graphics/SVG/1.1/DTD/svg11.dtd"><!-- Generated by graphviz version 2.40.1 (20161225.0304)
 --><!-- Title: %0 Pages: 1 --><svg xmlns="http://www.w3.org/2000/svg" xmlns:xlink="http://www.w3.org/1999/xlink" width="735pt" height="796pt" viewBox="0.00 0.00 734.98 795.80">
<g id="graph0" class="graph" transform="scale(1 1) rotate(0) translate(4 791.8)">
<title>%0</title>
<polygon fill="#ffffff" stroke="transparent" points="-4,4 -4,-791.8 730.9842,-791.8 730.9842,4 -4,4"/>
<!-- n6 -->
<g id="node1" class="node">
<title>n6</title>
<ellipse fill="none" stroke="#000000" cx="311.872" cy="-106.8" rx="100.1727" ry="18"/>
<text text-anchor="middle" x="311.872" y="-102.6" font-family="Times,serif" font-size="14.00" fill="#000000">#1554844.newInstance</text>
</g>
<!-- n1 -->
<g id="node5" class="node">
<title>n1</title>
<ellipse fill="none" stroke="#000000" cx="420.872" cy="-195.6" rx="148.1935" ry="18"/>
<text text-anchor="middle" x="420.872" y="-191.4" font-family="Times,serif" font-size="14.00" fill="#000000">t1554807: #1554804.newInstance()</text>
</g>
<!-- n6&#45;&gt;n1 -->
<g id="edge13" class="edge">
<title>n6-&gt;n1</title>
<path fill="none" stroke="#ff0000" stroke-width="3" d="M333.6678,-124.5566C350.046,-137.8996 372.6773,-156.3368 390.7802,-171.0848"/>
<polygon fill="#ff0000" stroke="#ff0000" stroke-width="3" points="388.7769,-173.9672 398.7404,-177.5698 393.1981,-168.5402 388.7769,-173.9672"/>
<text text-anchor="middle" x="410.108" y="-147" font-family="Times,serif" font-size="14.00" fill="#ff0000">step[3]: call</text>
</g>
<!-- n12 -->
<g id="node2" class="node">
<title>n12</title>
<ellipse fill="none" stroke="#000000" cx="276.872" cy="-623.8" rx="170.231" ry="18"/>
<text text-anchor="middle" x="276.872" y="-619.6" font-family="Times,serif" font-size="14.00" fill="#000000">t1554816: #1554794.getBytes(t1554815)</text>
</g>
<!-- n14 -->
<g id="node3" class="node">
<title>n14</title>
<ellipse fill="none" stroke="#000000" cx="85.872" cy="-696.8" rx="85.7443" ry="18"/>
<text text-anchor="middle" x="85.872" y="-692.6" font-family="Times,serif" font-size="14.00" fill="#000000">#1554794.getBytes</text>
</g>
<!-- n12&#45;&gt;n14 -->
<g id="edge10" class="edge">
<title>n12-&gt;n14</title>
<path fill="none" stroke="#000000" d="M231.1228,-641.2853C202.7648,-652.1237 166.2868,-666.0656 136.9814,-677.2661"/>
<polygon fill="#000000" stroke="#000000" points="135.4315,-674.1114 127.3401,-680.951 137.9307,-680.6501 135.4315,-674.1114"/>
</g>
<!-- n15 -->
<g id="node9" class="node">
<title>n15</title>
<ellipse fill="none" stroke="#000000" cx="276.872" cy="-696.8" rx="86.5563" ry="18"/>
<text text-anchor="middle" x="276.872" y="-692.6" font-family="Times,serif" font-size="14.00" fill="#000000">t1554815: "UTF-8"</text>
</g>
<!-- n12&#45;&gt;n15 -->
<g id="edge6" class="edge">
<title>n12-&gt;n15</title>
<path fill="none" stroke="#000000" d="M276.872,-641.8449C276.872,-649.9172 276.872,-659.6236 276.872,-668.6183"/>
<polygon fill="#000000" stroke="#000000" points="273.3721,-668.7096 276.872,-678.7096 280.3721,-668.7097 273.3721,-668.7096"/>
</g>
<!-- n16 -->
<g id="node10" class="node">
<title>n16</title>
<ellipse fill="none" stroke="#000000" cx="238.872" cy="-769.8" rx="37.1559" ry="18"/>
<text text-anchor="middle" x="238.872" y="-765.6" font-family="Times,serif" font-size="14.00" fill="#000000">xmlStr</text>
</g>
<!-- n12&#45;&gt;n16 -->
<g id="edge1" class="edge">
<title>n12-&gt;n16</title>
<path fill="none" stroke="#000000" d="M328.3775,-641.0361C345.6426,-649.5551 362.9995,-661.7658 372.872,-678.8 380.8951,-692.6431 381.7826,-701.5108 372.872,-714.8 353.4952,-743.6987 315.9215,-757.4255 285.4806,-763.9389"/>
<polygon fill="#000000" stroke="#000000" points="284.6169,-760.5411 275.4672,-765.8827 285.9509,-767.4128 284.6169,-760.5411"/>
</g>
<!-- n14&#45;&gt;n16 -->
<g id="edge14" class="edge">
<title>n14-&gt;n16</title>
<path fill="none" stroke="#000000" d="M120.5901,-713.3648C145.1384,-725.0774 177.9667,-740.7406 202.81,-752.5939"/>
<polygon fill="#000000" stroke="#000000" points="201.374,-755.7867 211.9066,-756.9341 204.3884,-749.469 201.374,-755.7867"/>
</g>
<!-- n26 -->
<g id="node4" class="node">
<title>n26</title>
<ellipse fill="none" stroke="#000000" cx="420.872" cy="-284.4" rx="137.2143" ry="18"/>
<text text-anchor="middle" x="420.872" y="-280.2" font-family="Times,serif" font-size="14.00" fill="#000000">#1554807.newDocumentBuilder</text>
</g>
<!-- n24 -->
<g id="node12" class="node">
<title>n24</title>
<ellipse fill="none" stroke="#000000" cx="420.872" cy="-373.2" rx="257.7245" ry="18"/>
<text text-anchor="middle" x="420.872" y="-369" font-family="Times,serif" font-size="14.00" fill="#000000">t1554810: documentBuilder=#1554807.newDocumentBuilder()</text>
</g>
<!-- n26&#45;&gt;n24 -->
<g id="edge7" class="edge">
<title>n26-&gt;n24</title>
<path fill="none" stroke="#ff0000" stroke-width="3" d="M420.872,-302.7994C420.872,-314.9051 420.872,-330.9924 420.872,-344.7326"/>
<polygon fill="#ff0000" stroke="#ff0000" stroke-width="3" points="417.3721,-345.1279 420.872,-355.128 424.3721,-345.128 417.3721,-345.1279"/>
<text text-anchor="middle" x="457.608" y="-324.6" font-family="Times,serif" font-size="14.00" fill="#ff0000">step[11]: call</text>
</g>
<!-- n1&#45;&gt;n26 -->
<g id="edge3" class="edge">
<title>n1-&gt;n26</title>
<path fill="none" stroke="#ff0000" stroke-width="3" d="M420.872,-213.9994C420.872,-226.1051 420.872,-242.1924 420.872,-255.9326"/>
<polygon fill="#ff0000" stroke="#ff0000" stroke-width="3" points="417.3721,-256.3279 420.872,-266.328 424.3721,-256.328 417.3721,-256.3279"/>
<text text-anchor="middle" x="493.5691" y="-235.8" font-family="Times,serif" font-size="14.00" fill="#ff0000">step[10]: search: *Builder</text>
</g>
<!-- n4 -->
<g id="node6" class="node">
<title>n4</title>
<ellipse fill="none" stroke="#000000" cx="420.872" cy="-18" rx="109.9518" ry="18"/>
<text text-anchor="middle" x="420.872" y="-13.8" font-family="Times,serif" font-size="14.00" fill="#000000">DocumentBuilderFactory</text>
</g>
<!-- n4&#45;&gt;n6 -->
<g id="edge8" class="edge">
<title>n4-&gt;n6</title>
<path fill="none" stroke="#ff0000" stroke-width="3" d="M372.7664,-34.4013C361.9835,-39.551 351.1581,-46.0302 342.4006,-54 334.6123,-61.0878 328.2678,-70.6373 323.4208,-79.6661"/>
<polygon fill="#ff0000" stroke="#ff0000" stroke-width="3" points="320.2178,-78.2473 318.9141,-88.7616 326.4901,-81.3552 320.2178,-78.2473"/>
<text text-anchor="middle" x="420.6077" y="-58.2" font-family="Times,serif" font-size="14.00" fill="#ff0000">step[2]: search newInstance</text>
</g>
<!-- n2 -->
<g id="node13" class="node">
<title>n2</title>
<ellipse fill="none" stroke="#000000" cx="530.872" cy="-106.8" rx="100.1727" ry="18"/>
<text text-anchor="middle" x="530.872" y="-102.6" font-family="Times,serif" font-size="14.00" fill="#000000">#1554804.newInstance</text>
</g>
<!-- n4&#45;&gt;n2 -->
<g id="edge12" class="edge">
<title>n4-&gt;n2</title>
<path fill="none" stroke="#ff0000" stroke-width="3" d="M467.0788,-34.3592C477.9287,-39.5617 488.9233,-46.0755 497.872,-54 506.0053,-61.2023 512.8385,-70.8871 518.139,-79.9952"/>
<polygon fill="#ff0000" stroke="#ff0000" stroke-width="3" points="515.0715,-81.6807 522.92,-88.7978 521.2228,-78.3398 515.0715,-81.6807"/>
<text text-anchor="middle" x="589.6077" y="-58.2" font-family="Times,serif" font-size="14.00" fill="#ff0000">step[2]: search newInstance</text>
</g>
<!-- n9 -->
<g id="node7" class="node">
<title>n9</title>
<ellipse fill="none" stroke="#000000" cx="564.872" cy="-623.8" rx="99.5558" ry="18"/>
<text text-anchor="middle" x="564.872" y="-619.6" font-family="Times,serif" font-size="14.00" fill="#000000">ByteArrayInputStream</text>
</g>
<!-- n10 -->
<g id="node8" class="node">
<title>n10</title>
<ellipse fill="none" stroke="#000000" cx="420.872" cy="-550.8" rx="306.2244" ry="18"/>
<text text-anchor="middle" x="420.872" y="-546.6" font-family="Times,serif" font-size="14.00" fill="#000000">t1554817: stream=ByteArrayInputStream(ByteArrayInputStream,t1554816)</text>
</g>
<!-- n10&#45;&gt;n12 -->
<g id="edge9" class="edge">
<title>n10-&gt;n12</title>
<path fill="none" stroke="#000000" d="M385.2765,-568.8449C365.9203,-578.6575 341.8005,-590.8849 321.2299,-601.313"/>
<polygon fill="#000000" stroke="#000000" points="319.3949,-598.3192 312.0581,-605.9626 322.56,-604.5627 319.3949,-598.3192"/>
</g>
<!-- n10&#45;&gt;n9 -->
<g id="edge5" class="edge">
<title>n10-&gt;n9</title>
<path fill="none" stroke="#000000" d="M456.4675,-568.8449C476.3463,-578.9224 501.2492,-591.5468 522.1721,-602.1535"/>
<polygon fill="#000000" stroke="#000000" points="520.6681,-605.3151 531.1701,-606.715 523.8333,-599.0715 520.6681,-605.3151"/>
</g>
<!-- n22 -->
<g id="node11" class="node">
<title>n22</title>
<ellipse fill="none" stroke="#000000" cx="420.872" cy="-462" rx="72.4017" ry="18"/>
<text text-anchor="middle" x="420.872" y="-457.8" font-family="Times,serif" font-size="14.00" fill="#000000">#1554810.parse</text>
</g>
<!-- n22&#45;&gt;n10 -->
<g id="edge2" class="edge">
<title>n22-&gt;n10</title>
<path fill="none" stroke="#ff0000" stroke-width="3" d="M420.872,-480.3994C420.872,-492.5051 420.872,-508.5924 420.872,-522.3326"/>
<polygon fill="#ff0000" stroke="#ff0000" stroke-width="3" points="417.3721,-522.7279 420.872,-532.728 424.3721,-522.728 417.3721,-522.7279"/>
<text text-anchor="middle" x="487.5337" y="-502.2" font-family="Times,serif" font-size="14.00" fill="#ff0000">step[13]: all-actual-args</text>
</g>
<!-- n24&#45;&gt;n22 -->
<g id="edge11" class="edge">
<title>n24-&gt;n22</title>
<path fill="none" stroke="#ff0000" stroke-width="3" d="M420.872,-391.5994C420.872,-403.7051 420.872,-419.7924 420.872,-433.5326"/>
<polygon fill="#ff0000" stroke="#ff0000" stroke-width="3" points="417.3721,-433.9279 420.872,-443.928 424.3721,-433.928 417.3721,-433.9279"/>
<text text-anchor="middle" x="481.8945" y="-413.4" font-family="Times,serif" font-size="14.00" fill="#ff0000">step[12]: search parse</text>
</g>
<!-- n2&#45;&gt;n1 -->
<g id="edge4" class="edge">
<title>n2-&gt;n1</title>
<path fill="none" stroke="#ff0000" stroke-width="3" d="M508.8763,-124.5566C492.3478,-137.8996 469.5089,-156.3368 451.2399,-171.0848"/>
<polygon fill="#ff0000" stroke="#ff0000" stroke-width="3" points="448.7893,-168.565 443.2067,-177.5698 453.1863,-174.0117 448.7893,-168.565"/>
<text text-anchor="middle" x="519.108" y="-147" font-family="Times,serif" font-size="14.00" fill="#ff0000">step[3]: call</text>
</g>
</g>
</svg>